<?xml version="1.0" standalone="no"?>
<!DOCTYPE svg PUBLIC "-//W3C//DTD SVG 20010904//EN"
 "http://www.w3.org/TR/2001/REC-SVG-20010904/DTD/svg10.dtd">
<svg version="1.0" xmlns="http://www.w3.org/2000/svg"
 width="934.000000pt" height="934.000000pt" viewBox="0 0 934.000000 934.000000"
 preserveAspectRatio="xMidYMid meet">
<metadata>
Created by potrace 1.14, written by Peter Selinger 2001-2017
</metadata>
<g transform="translate(0.000000,934.000000) scale(0.100000,-0.100000)"
fill="#000000" stroke="none">
<path d="M3627 9332 c-10 -2 -17 -5 -17 -7 0 -5 107 -186 271 -462 60 -99 109
-186 109 -193 0 -11 -324 -573 -369 -640 -9 -14 -25 -42 -36 -64 -11 -21 -36
-57 -56 -80 -58 -67 -73 -103 -72 -177 1 -111 48 -212 192 -419 44 -63 83
-120 88 -126 31 -39 117 -216 153 -314 53 -147 107 -378 114 -490 l2 -35 666
-3 666 -2 7 52 c3 29 10 76 15 103 5 28 11 61 14 75 31 183 145 478 239 615
18 28 68 101 110 162 123 181 169 286 168 385 0 71 -18 115 -73 175 -24 27
-49 59 -57 73 -8 14 -37 63 -64 110 -169 292 -248 430 -253 444 -5 12 4 20 31
32 45 18 124 96 149 144 40 79 49 124 49 230 -1 148 -32 231 -122 319 -32 32
-114 76 -163 87 -13 3 -164 7 -337 8 -282 1 -316 0 -335 -15 -21 -17 -21 -21
-22 -626 -1 -334 -2 -614 -3 -622 -2 -25 -27 6 -82 102 -29 51 -60 103 -70
117 -36 53 -219 369 -219 378 0 5 84 152 186 327 102 175 188 323 190 329 7
18 -308 12 -319 -5 -4 -8 -55 -94 -113 -191 -57 -98 -108 -178 -112 -178 -4 0
-22 26 -39 58 -56 97 -180 309 -189 320 -3 5 -276 8 -297 4z m1710 -317 c18
-18 34 -44 34 -56 3 -46 -1 -84 -12 -112 -20 -49 -52 -57 -219 -57 l-150 0 0
129 0 128 157 1 157 0 33 -33z m-232 -527 c7 -7 30 -44 51 -83 20 -38 48 -87
61 -107 13 -21 23 -40 23 -42 0 -2 25 -47 55 -100 51 -88 66 -124 47 -112 -8
5 -146 17 -242 21 -36 2 -75 4 -87 4 l-23 1 0 213 c0 118 2 216 4 218 10 10
99 0 111 -13z m-875 -213 c0 -2 27 -48 59 -102 33 -54 58 -99 57 -101 -2 -1
-41 -4 -87 -7 -114 -5 -226 -14 -271 -21 -21 -3 -38 -3 -38 0 0 3 20 38 44 78
45 74 70 118 128 220 l33 56 37 -59 c21 -33 38 -62 38 -64z"/>
<path d="M3845 6220 c-11 -4 -29 -18 -40 -30 -19 -21 -20 -36 -20 -221 l1
-199 27 -28 27 -27 818 -1 c870 -1 867 -1 893 47 16 31 17 386 0 417 -28 52
-5 51 -877 50 -445 0 -818 -4 -829 -8z"/>
<path d="M3705 5586 c-22 -18 -28 -32 -31 -75 -4 -47 -1 -55 24 -80 l28 -28
946 0 946 0 26 21 c30 24 40 81 23 129 -19 57 19 55 -998 55 l-936 0 -28 -22z"/>
<path d="M4025 4901 c-1 -439 -5 -536 -41 -856 -17 -154 -69 -425 -100 -530
-64 -211 -131 -358 -231 -507 -70 -105 -156 -190 -256 -253 -132 -84 -161
-115 -181 -199 -12 -48 -21 -159 -17 -203 1 -10 304 -13 1477 -13 l1477 0 -6
93 c-7 112 -27 183 -64 223 -16 17 -73 61 -129 97 -160 105 -257 222 -369 445
-80 159 -135 334 -180 572 -11 58 -44 290 -50 350 -3 36 -8 83 -10 105 -24
245 -33 676 -21 972 l5 112 -652 -1 -652 0 0 -407z"/>
<path d="M2724 2234 c-61 -15 -98 -48 -130 -114 -15 -31 -17 -76 -17 -385 1
-382 2 -392 59 -448 16 -16 42 -36 59 -45 28 -16 183 -17 1965 -18 1302 -1
1945 2 1965 9 57 20 95 52 120 101 l25 50 0 348 c0 292 -3 355 -15 386 -20 47
-50 79 -100 105 l-40 21 -1924 1 c-1382 0 -1936 -3 -1967 -11z"/>
<path d="M2485 1118 c-86 -12 -159 -90 -170 -181 -15 -126 9 -224 69 -274 67
-57 -84 -53 2282 -53 1650 0 2196 3 2226 12 46 14 98 59 123 107 19 39 27 171
13 234 -13 58 -48 104 -102 133 l-49 27 -2172 1 c-1194 1 -2193 -2 -2220 -6z"/>
<path d="M2245 504 c-49 -17 -102 -70 -120 -120 -9 -26 -13 -72 -11 -140 3
-106 14 -136 71 -188 56 -51 -95 -48 2495 -48 1994 0 2409 2 2430 14 48 25 79
55 102 99 19 37 22 58 22 144 -1 82 -4 107 -22 142 -25 48 -71 86 -122 101
-24 7 -786 10 -2421 10 -1938 -1 -2394 -3 -2424 -14z"/>
</g>
</svg>
